<svg width="256" height="256" viewBox="0 0 256 256" xmlns="http://www.w3.org/2000/svg" xmlns:xlink="http://www.w3.org/1999/xlink">
	<!-- logo -->
	<path style="fill:black;" d="
		M 11 188
		l 0 -91
		a 13 13 0 0 1 13 -13
		l 40 0
		a 4.5 4.5 0 0 1 0 9
		l -40 0
		a 4 4 0 0 0 -4 4
		l 0 91
		a 4 4 0 0 0 4 4
		l 207 0
		a 4 4 0 0 0 4 -4
		l 0 -91
		a 4 4 0 0 0 -4 -4
		l -40 0
		a 4.5 4.5 0 0 1 0 -9
		l 40 0
		a 13 13 0 0 1 13 13
		l 0 91
		a 13 13 0 0 1 -13 13
		l -207 0
		a 13 13 0 0 1 -13 -13
		Z" />
	<path style="fill:blue;" fill-opacity=".9" d="
		M 81 108
		m 3 0
		l 0 -41
		a 10 10 0 0 1 10 -10
		l 67 0
		a 10 10 0 0 1 10 10
		l 0 41
		a 10 10 0 0 0 10 10
		l 10 0
		a 10 10 0 0 1 10 10
		a 10 10 0 0 1 -9.396926 6.579799
		l -60.682873 22.086760
		a 10 10 0 0 1 -6.840402 0
		l -60.682873 -22.086760
		a 10 10 0 0 1 -9.396926 -6.579799
		a 10 10 0 0 1 10 -10
		l 10 0
		a 10 10 0 0 0 10 -10
		Z" />
	<path style="fill:black;" d="
		M 81 108
		l 0 -41
		a 13 13 0 0 1 13 -13
		l 67 0
		a 13 13 0 0 1 13 13
		l 0 41
		a 4 4 0 0 0 4 4
		l 10 0
		a 13 13 0 0 1 13 13
		a 13 13 0 0 1 -8.553738 12.216004
		l -60.682873 22.086760
		a 13 13 0 0 1 -8.526778 0
		l -60.682873 -22.086760
		a 13 13 0 0 1 -8.553738 -12.216004
		a 13 13 0 0 1 13 -13
		l 10 0
		a 4 4 0 0 0 4 -4
		l 9 0
		a 13 13 0 0 1 -13 13
		l -10 0
		a 4 4 0 0 0 -4 4
		a 4 4 0 0 0 2.631919 3.758770
		l 60.682873 22.086760
		a 4 4 0 0 0 2.370416 0
		l 60.682873 -22.086760
		a 4 4 0 0 0 2.631919 -3.758770
		a 4 4 0 0 0 -4 -4
		l -10 0
		a 13 13 0 0 1 -13 -13
		l 0 -41
		a 4 4 0 0 0 -4 -4
		l -67 0
		a 4 4 0 0 0 -4 4
		l 0 41
		Z" />

</svg>
