<svg width="256" height="256" viewBox="0 0 256 256" xmlns="http://www.w3.org/2000/svg" xmlns:xlink="http://www.w3.org/1999/xlink">
	<!-- logo -->
	<path style="fill:white;" fill-opacity=".9" d="
		M 11 188
		m 3 0
		l 0 -121
		a 10 10 0 0 1 10 -10
		l 207 0
		a 10 10 0 0 1 10 10
		l 0 121
		a 10 10 0 0 1 -10 10
		l -207 0
		a 10 10 0 0 1 -10 -10
		Z" />
	<path style="fill:black;" d="
		M 11 188
		l 0 -121
		a 13 13 0 0 1 13 -13
		l 207 0
		a 13 13 0 0 1 13 13
		l 0 121
		a 13 13 0 0 1 -13 13
		l -207 0
		a 13 13 0 0 1 -13 -13
		l 9 0
		a 4 4 0 0 0 4 4
		l 207 0
		a 4 4 0 0 0 4 -4
		l 0 -121
		a 4 4 0 0 0 -4 -4
		l -207 0
		a 4 4 0 0 0 -4 4
		l 0 121
		Z" />
	<path style="fill:red;" fill-opacity=".9" d="
		M 35 163
		m 3 0
		l 0 -56
		a 10 10 0 0 1 10 -10
		l 31 0
		a 10 10 0 0 1 10 10
		l 0 56
		a 10 10 0 0 1 -10 10
		l -31 0
		a 10 10 0 0 1 -10 -10
		Z" />
	<path style="fill:black;" d="
		M 35 163
		l 0 -56
		a 13 13 0 0 1 13 -13
		l 31 0
		a 13 13 0 0 1 13 13
		l 0 56
		a 13 13 0 0 1 -13 13
		l -31 0
		a 13 13 0 0 1 -13 -13
		l 9 0
		a 4 4 0 0 0 4 4
		l 31 0
		a 4 4 0 0 0 4 -4
		l 0 -56
		a 4 4 0 0 0 -4 -4
		l -31 0
		a 4 4 0 0 0 -4 4
		l 0 56
		Z" />
	<path style="fill:green;" fill-opacity=".9" d="
		M 99 163
		m 3 0
		l 0 -76
		a 10 10 0 0 1 10 -10
		l 31 0
		a 10 10 0 0 1 10 10
		l 0 76
		a 10 10 0 0 1 -10 10
		l -31 0
		a 10 10 0 0 1 -10 -10
		Z" />
	<path style="fill:black;" d="
		M 99 163
		l 0 -76
		a 13 13 0 0 1 13 -13
		l 31 0
		a 13 13 0 0 1 13 13
		l 0 76
		a 13 13 0 0 1 -13 13
		l -31 0
		a 13 13 0 0 1 -13 -13
		l 9 0
		a 4 4 0 0 0 4 4
		l 31 0
		a 4 4 0 0 0 4 -4
		l 0 -76
		a 4 4 0 0 0 -4 -4
		l -31 0
		a 4 4 0 0 0 -4 4
		l 0 76
		Z" />
	<path style="fill:blue;" fill-opacity=".9" d="
		M 163 163
		m 3 0
		l 0 -36
		a 10 10 0 0 1 10 -10
		l 31 0
		a 10 10 0 0 1 10 10
		l 0 36
		a 10 10 0 0 1 -10 10
		l -31 0
		a 10 10 0 0 1 -10 -10
		Z" />
	<path style="fill:black;" d="
		M 163 163
		l 0 -36
		a 13 13 0 0 1 13 -13
		l 31 0
		a 13 13 0 0 1 13 13
		l 0 36
		a 13 13 0 0 1 -13 13
		l -31 0
		a 13 13 0 0 1 -13 -13
		l 9 0
		a 4 4 0 0 0 4 4
		l 31 0
		a 4 4 0 0 0 4 -4
		l 0 -36
		a 4 4 0 0 0 -4 -4
		l -31 0
		a 4 4 0 0 0 -4 4
		l 0 36
		Z" />
</svg>
