<svg width="256" height="256" viewBox="0 0 256 256" xmlns="http://www.w3.org/2000/svg" xmlns:xlink="http://www.w3.org/1999/xlink">
	<!-- logo -->
	<path style="fill:gray;" fill-opacity=".9" d="
		M 132 188
		m 3 0
		l 0 -61
		a 10 10 0 0 1 10 -10
		l 86 0
		a 10 10 0 0 1 10 10
		l 0 61
		a 10 10 0 0 1 -10 10
		l -86 0
		a 10 10 0 0 1 -10 -10
		Z" />
	<path style="fill:black;" d="
		M 132 188
		l 0 -61
		a 13 13 0 0 1 13 -13
		l 86 0
		a 13 13 0 0 1 13 13
		l 0 61
		a 13 13 0 0 1 -13 13
		l -86 0
		a 13 13 0 0 1 -13 -13
		l 9 0
		a 4 4 0 0 0 4 4
		l 86 0
		a 4 4 0 0 0 4 -4
		l 0 -61
		a 4 4 0 0 0 -4 -4
		l -86 0
		a 4 4 0 0 0 -4 4
		l 0 61
		Z" />
	<path style="fill:black;" d="
		M 179 162
		a 16 16 0 1 1 16 0
		l 0 10
		a 8 8 0 0 1 -16 0
		l 0 -10
		Z" />
	<path style="fill:white;" fill-opacity=".9" d="
		M 147 91
		m 3 0
		l 0 -4
		a 30 30 0 0 1 30 -30
		l 16 0
		a 30 30 0 0 1 30 30
		l 0 33
		l -22 0
		l 0 -33
		a 8 8 0 0 0 -8 -8
		l -16 0
		a 8 8 0 0 0 -8 8
		l 0 4
		a 10 10 0 0 1 -10 10
		l -2 0
		a 10 10 0 0 1 -10 -10
		Z" />
	<path style="fill:black;" d="
		M 147 91
		l 0 -4
		a 33 33 0 0 1 33 -33
		l 16 0
		a 33 33 0 0 1 33 33
		l 0 36
		l -28 0
		l 0 -36
		a 5 5 0 0 0 -5 -5
		l -16 0
		a 5 5 0 0 0 -5 5
		l 0 4
		a 13 13 0 0 1 -13 13
		l -2 0
		a 13 13 0 0 1 -13 -13
		l 9 0
		a 4 4 0 0 0 4 4
		l 2 0
		a 4 4 0 0 0 4 -4
		l 0 -4
		a 14 14 0 0 1 14 -14
		l 16 0
		a 14 14 0 0 1 14 14
		l 0 27
		l 10 0
		l 0 -27
		a 24 24 0 0 0 -24 -24
		l -16 0
		a 24 24 0 0 0 -24 24
		l 0 4
		Z" />
	<path style="fill:yellow;" fill-opacity=".9" d="
		M 11 162
		m 3 0
		l 0 -28
		a 29 29 0 0 1 29 -29
		l 2 0
		a 29 29 0 0 1 29 29
		l 0 3
		l 94 0
		a 10 10 0 0 1 10 10
		l 0 2
		a 10 10 0 0 1 -10 10
		l -14 0
		l 0 12
		a 10 10 0 0 1 -10 10
		l -2 0
		a 10 10 0 0 1 -10 -10
		l 0 -12
		l -12 0
		l 0 20
		a 10 10 0 0 1 -10 10
		l -2 0
		a 10 10 0 0 1 -10 -10
		l 0 -20
		l -24 0
		l 0 3
		a 29 29 0 0 1 -29 29
		l -2 0
		a 29 29 0 0 1 -29 -29
		Z" />
	<path style="fill:black;" d="
		M 11 162
		l 0 -28
		a 32 32 0 0 1 32 -32
		l 2 0
		a 32 32 0 0 1 32 32
		l 90 0
		a 13 13 0 0 1 13 13
		l 0 2
		a 13 13 0 0 1 -13 13
		l -10 0
		l 0 8
		a 13 13 0 0 1 -13 13
		l -2 0
		a 13 13 0 0 1 -13 -13
		l 0 -8
		l -6 0
		l 0 16
		a 13 13 0 0 1 -13 13
		l -2 0
		a 13 13 0 0 1 -13 -13
		l 0 -16
		l -18 0
		a 32 32 0 0 1 -32 32
		l -2 0
		a 32 32 0 0 1 -32 -32
		l 9 0
		a 23 23 0 0 0 23 23
		l 2 0
		a 23 23 0 0 0 23 -23
		l 0 -9
		l 36 0
		l 0 25
		a 4 4 0 0 0 4 4
		l 2 0
		a 4 4 0 0 0 4 -4
		l 0 -25
		l 24 0
		l 0 17
		a 4 4 0 0 0 4 4
		l 2 0
		a 4 4 0 0 0 4 -4
		l 0 -17
		l 19 0
		a 4 4 0 0 0 4 -4
		l 0 -2
		a 4 4 0 0 0 -4 -4
		l -99 0
		l 0 -9
		a 23 23 0 0 0 -23 -23
		l -2 0
		a 23 23 0 0 0 -23 23
		l 0 28
		Z" />
	<path style="fill:white;" fill-opacity=".9" d="
		M 30 162
		m 3 0
		l 0 -28
		a 10 10 0 0 1 10 -10
		l 2 0
		a 10 10 0 0 1 10 10
		l 0 28
		a 10 10 0 0 1 -10 10
		l -2 0
		a 10 10 0 0 1 -10 -10
		Z" />
	<path style="fill:black;" d="
		M 30 162
		l 0 -28
		a 13 13 0 0 1 13 -13
		l 2 0
		a 13 13 0 0 1 13 13
		l 0 28
		a 13 13 0 0 1 -13 13
		l -2 0
		a 13 13 0 0 1 -13 -13
		l 9 0
		a 4 4 0 0 0 4 4
		l 2 0
		a 4 4 0 0 0 4 -4
		l 0 -28
		a 4 4 0 0 0 -4 -4
		l -2 0
		a 4 4 0 0 0 -4 4
		l 0 28
		Z" />
</svg>
