<svg width="256" height="256" viewBox="0 0 256 256" xmlns="http://www.w3.org/2000/svg" xmlns:xlink="http://www.w3.org/1999/xlink">
	<!-- logo -->
	<path style="fill:red;" fill-opacity=".9" d="
		M 11 188
		m 3 0
		l 0 -16.333333
		a 10 10 0 0 1 10 -10
		l 45 0
		a 10 10 0 0 1 10 10
		l 0 16.333333
		a 10 10 0 0 1 -10 10
		l -45 0
		a 10 10 0 0 1 -10 -10
		Z" />
	<path style="fill:black;" d="
		M 11 188
		l 0 -16.333333
		a 13 13 0 0 1 13 -13
		l 45 0
		a 13 13 0 0 1 13 13
		l 0 16.333333
		a 13 13 0 0 1 -13 13
		l -45 0
		a 13 13 0 0 1 -13 -13
		l 9 0
		a 4 4 0 0 0 4 4
		l 45 0
		a 4 4 0 0 0 4 -4
		l 0 -16.333333
		a 4 4 0 0 0 -4 -4
		l -45 0
		a 4 4 0 0 0 -4 4
		l 0 16.333333
		Z" />
	<path style="fill:white;" fill-opacity=".9" d="
		M 92 188
		m 3 0
		l 0 -16.333333
		a 10 10 0 0 1 10 -10
		l 45 0
		a 10 10 0 0 1 10 10
		l 0 16.333333
		a 10 10 0 0 1 -10 10
		l -45 0
		a 10 10 0 0 1 -10 -10
		Z" />
	<path style="fill:black;" d="
		M 92 188
		l 0 -16.333333
		a 13 13 0 0 1 13 -13
		l 45 0
		a 13 13 0 0 1 13 13
		l 0 16.333333
		a 13 13 0 0 1 -13 13
		l -45 0
		a 13 13 0 0 1 -13 -13
		l 9 0
		a 4 4 0 0 0 4 4
		l 45 0
		a 4 4 0 0 0 4 -4
		l 0 -16.333333
		a 4 4 0 0 0 -4 -4
		l -45 0
		a 4 4 0 0 0 -4 4
		l 0 16.333333
		Z" />
	<path style="fill:blue;" fill-opacity=".9" d="
		M 173 188
		m 3 0
		l 0 -16.333333
		a 10 10 0 0 1 10 -10
		l 45 0
		a 10 10 0 0 1 10 10
		l 0 16.333333
		a 10 10 0 0 1 -10 10
		l -45 0
		a 10 10 0 0 1 -10 -10
		Z" />
	<path style="fill:black;" d="
		M 173 188
		l 0 -16.333333
		a 13 13 0 0 1 13 -13
		l 45 0
		a 13 13 0 0 1 13 13
		l 0 16.333333
		a 13 13 0 0 1 -13 13
		l -45 0
		a 13 13 0 0 1 -13 -13
		l 9 0
		a 4 4 0 0 0 4 4
		l 45 0
		a 4 4 0 0 0 4 -4
		l 0 -16.333333
		a 4 4 0 0 0 -4 -4
		l -45 0
		a 4 4 0 0 0 -4 4
		l 0 16.333333
		Z" />
	<path style="fill:green;" fill-opacity=".9" d="
		M 51.5 135.666667
		m 3 0
		l 0 -16.333333
		a 10 10 0 0 1 10 -10
		l 45 0
		a 10 10 0 0 1 10 10
		l 0 16.333333
		a 10 10 0 0 1 -10 10
		l -45 0
		a 10 10 0 0 1 -10 -10
		Z" />
	<path style="fill:black;" d="
		M 51.5 135.666667
		l 0 -16.333333
		a 13 13 0 0 1 13 -13
		l 45 0
		a 13 13 0 0 1 13 13
		l 0 16.333333
		a 13 13 0 0 1 -13 13
		l -45 0
		a 13 13 0 0 1 -13 -13
		l 9 0
		a 4 4 0 0 0 4 4
		l 45 0
		a 4 4 0 0 0 4 -4
		l 0 -16.333333
		a 4 4 0 0 0 -4 -4
		l -45 0
		a 4 4 0 0 0 -4 4
		l 0 16.333333
		Z" />
	<path style="fill:orange;" fill-opacity=".9" d="
		M 132.5 135.666667
		m 3 0
		l 0 -16.333333
		a 10 10 0 0 1 10 -10
		l 45 0
		a 10 10 0 0 1 10 10
		l 0 16.333333
		a 10 10 0 0 1 -10 10
		l -45 0
		a 10 10 0 0 1 -10 -10
		Z" />
	<path style="fill:black;" d="
		M 132.5 135.666667
		l 0 -16.333333
		a 13 13 0 0 1 13 -13
		l 45 0
		a 13 13 0 0 1 13 13
		l 0 16.333333
		a 13 13 0 0 1 -13 13
		l -45 0
		a 13 13 0 0 1 -13 -13
		l 9 0
		a 4 4 0 0 0 4 4
		l 45 0
		a 4 4 0 0 0 4 -4
		l 0 -16.333333
		a 4 4 0 0 0 -4 -4
		l -45 0
		a 4 4 0 0 0 -4 4
		l 0 16.333333
		Z" />
	<path style="fill:yellow;" fill-opacity=".9" d="
		M 92 83.333333
		m 3 0
		l 0 -16.333333
		a 10 10 0 0 1 10 -10
		l 45 0
		a 10 10 0 0 1 10 10
		l 0 16.333333
		a 10 10 0 0 1 -10 10
		l -45 0
		a 10 10 0 0 1 -10 -10
		Z" />
	<path style="fill:black;" d="
		M 92 83.333333
		l 0 -16.333333
		a 13 13 0 0 1 13 -13
		l 45 0
		a 13 13 0 0 1 13 13
		l 0 16.333333
		a 13 13 0 0 1 -13 13
		l -45 0
		a 13 13 0 0 1 -13 -13
		l 9 0
		a 4 4 0 0 0 4 4
		l 45 0
		a 4 4 0 0 0 4 -4
		l 0 -16.333333
		a 4 4 0 0 0 -4 -4
		l -45 0
		a 4 4 0 0 0 -4 4
		l 0 16.333333
		Z" />
</svg>
