<svg width="256" height="256" viewBox="0 0 256 256" xmlns="http://www.w3.org/2000/svg" xmlns:xlink="http://www.w3.org/1999/xlink">
	<!-- logo -->
	<path style="fill:red;" fill-opacity=".6" d="
		M 54 101
		m 3 0
		l 0 -34
		a 10 10 0 0 1 10 -10
		l 73 0
		a 10 10 0 0 1 10 10
		l 0 34
		a 10 10 0 0 1 -10 10
		l -73 0
		a 10 10 0 0 1 -10 -10
		Z" />
	<path style="fill:black;" d="
		M 54 101
		l 0 -34
		a 13 13 0 0 1 13 -13
		l 73 0
		a 13 13 0 0 1 13 13
		l 0 34
		a 13 13 0 0 1 -13 13
		l -73 0
		a 13 13 0 0 1 -13 -13
		l 9 0
		a 4 4 0 0 0 4 4
		l 73 0
		a 4 4 0 0 0 4 -4
		l 0 -34
		a 4 4 0 0 0 -4 -4
		l -73 0
		a 4 4 0 0 0 -4 4
		l 0 34
		Z" />
	<path style="fill:green;" fill-opacity=".6" d="
		M 11 188
		m 3 0
		l 0 -34
		a 10 10 0 0 1 10 -10
		l 73 0
		a 10 10 0 0 1 10 10
		l 0 34
		a 10 10 0 0 1 -10 10
		l -73 0
		a 10 10 0 0 1 -10 -10
		Z" />
	<path style="fill:black;" d="
		M 11 188
		l 0 -34
		a 13 13 0 0 1 13 -13
		l 73 0
		a 13 13 0 0 1 13 13
		l 0 34
		a 13 13 0 0 1 -13 13
		l -73 0
		a 13 13 0 0 1 -13 -13
		l 9 0
		a 4 4 0 0 0 4 4
		l 73 0
		a 4 4 0 0 0 4 -4
		l 0 -34
		a 4 4 0 0 0 -4 -4
		l -73 0
		a 4 4 0 0 0 -4 4
		l 0 34
		Z" />
	<path style="fill:blue;" fill-opacity=".6" d="
		M 145 169
		m 3 0
		l 0 -34
		a 10 10 0 0 1 10 -10
		l 73 0
		a 10 10 0 0 1 10 10
		l 0 34
		a 10 10 0 0 1 -10 10
		l -73 0
		a 10 10 0 0 1 -10 -10
		Z" />
	<path style="fill:black;" d="
		M 145 169
		l 0 -34
		a 13 13 0 0 1 13 -13
		l 73 0
		a 13 13 0 0 1 13 13
		l 0 34
		a 13 13 0 0 1 -13 13
		l -73 0
		a 13 13 0 0 1 -13 -13
		l 9 0
		a 4 4 0 0 0 4 4
		l 73 0
		a 4 4 0 0 0 4 -4
		l 0 -34
		a 4 4 0 0 0 -4 -4
		l -73 0
		a 4 4 0 0 0 -4 4
		l 0 34
		Z" />
	<path style="fill:#99887a;" fill-opacity=".9" d="
		M 39 155
		m 3 0
		l 0 -58
		a 10 10 0 0 1 10 -10
		l 41 0
		l 17 -13
		l 23 0
		l 17 13
		l 41 0
		a 10 10 0 0 1 10 10
		l 0 58
		a 10 10 0 0 1 -10 10
		l -139 0
		a 10 10 0 0 1 -10 -10
		Z" />
	<path style="fill:black;" d="
		M 39 155
		l 0 -58
		a 13 13 0 0 1 13 -13
		l 37.979185 0
		a 4 4 0 0 0 2.828427 -1.171573
		l 8 -8
		a 13 13 0 0 1 9.192388 -3.807612
		l 23 0
		a 13 13 0 0 1 9.192388 3.807612
		l 8 8
		a 4 4 0 0 0 2.828427 1.171573
		l 37.979185 0
		a 13 13 0 0 1 13 13
		l 0 58
		a 13 13 0 0 1 -13 13
		l -139 0
		a 13 13 0 0 1 -13 -13
		l 9 0
		a 4 4 0 0 0 4 4
		l 139 0
		a 4 4 0 0 0 4 -4
		l 0 -58
		a 4 4 0 0 0 -4 -4
		l -37.979185 0
		a 13 13 0 0 1 -9.192388 -3.807612
		l -8 -8
		a 4 4 0 0 0 -2.828427 -1.171573
		l -23 0
		a 4 4 0 0 0 -2.828427 1.171573
		l -8 8
		a 13 13 0 0 1 -9.192388 3.807612
		l -37.979185 0
		a 4 4 0 0 0 -4 4
		l 0 58
		Z" />
	<path style="fill:black;" d="
		M 96.5 126
		a 25 25 0 0 1 25 -25
		a 25 25 0 0 1 25 25
		a 25 25 0 0 1 -25 25
		a 25 25 0 0 1 -25 -25
		l 9 0
		a 16 16 0 0 0 16 16
		a 16 16 0 0 0 16 -16
		a 16 16 0 0 0 -16 -16
		a 16 16 0 0 0 -16 16
		Z" />
	<path style="fill:black;" d="
		M 164 106
		a 6 6 0 0 1 6 -6
		l 12 0
		a 6 6 0 0 1 6 6
		a 6 6 0 0 1 -6 6
		l -12 0
		a 6 6 0 0 1 -6 -6
		Z" />
</svg>
