<svg width="256" height="256" viewBox="0 0 256 256" xmlns="http://www.w3.org/2000/svg" xmlns:xlink="http://www.w3.org/1999/xlink">
	<!-- logo -->
	<path style="fill:#ffffcc;" fill-opacity=".9" d="
		M 11 104.670919
		m 3 0
		a 10 10 0 0 1 6.579799 -9.396926
		l 103.5 -37.670919
		a 10 10 0 0 1 6.840402 0
		l 103.5 37.670919
		a 10 10 0 0 1 6.579799 9.396926
		a 10 10 0 0 1 -10 10
		l -207 0
		a 10 10 0 0 1 -10 -10
		Z" />
	<path style="fill:black;" d="
		M 11 104.670919
		a 13 13 0 0 1 8.553738 -12.216004
		l 103.5 -37.670919
		a 13 13 0 0 1 8.892524 0
		l 103.5 37.670919
		a 13 13 0 0 1 8.553738 12.216004
		a 13 13 0 0 1 -13 13
		l -207 0
		a 13 13 0 0 1 -13 -13
		l 9 0
		a 4 4 0 0 0 4 4
		l 207 0
		a 4 4 0 0 0 4 -4
		a 4 4 0 0 0 -2.631920 -3.758770
		l -103.5 -37.670919
		a 4 4 0 0 0 -2.736160 0
		l -103.5 37.670919
		a 4 4 0 0 0 -2.631920 3.758770
		Z" />
	<path style="fill:red;" fill-opacity=".9" d="
		M 11 188
		m 3 0
		l 0 -47.329081
		a 10 10 0 0 1 10 -10
		l 45 0
		a 10 10 0 0 1 10 10
		l 0 47.329081
		a 10 10 0 0 1 -10 10
		l -45 0
		a 10 10 0 0 1 -10 -10
		Z" />
	<path style="fill:black;" d="
		M 11 188
		l 0 -47.329081
		a 13 13 0 0 1 13 -13
		l 45 0
		a 13 13 0 0 1 13 13
		l 0 47.329081
		a 13 13 0 0 1 -13 13
		l -45 0
		a 13 13 0 0 1 -13 -13
		l 9 0
		a 4 4 0 0 0 4 4
		l 45 0
		a 4 4 0 0 0 4 -4
		l 0 -47.329081
		a 4 4 0 0 0 -4 -4
		l -45 0
		a 4 4 0 0 0 -4 4
		l 0 47.329081
		Z" />
	<path style="fill:green;" fill-opacity=".9" d="
		M 92 188
		m 3 0
		l 0 -47.329081
		a 10 10 0 0 1 10 -10
		l 45 0
		a 10 10 0 0 1 10 10
		l 0 47.329081
		a 10 10 0 0 1 -10 10
		l -45 0
		a 10 10 0 0 1 -10 -10
		Z" />
	<path style="fill:black;" d="
		M 92 188
		l 0 -47.329081
		a 13 13 0 0 1 13 -13
		l 45 0
		a 13 13 0 0 1 13 13
		l 0 47.329081
		a 13 13 0 0 1 -13 13
		l -45 0
		a 13 13 0 0 1 -13 -13
		l 9 0
		a 4 4 0 0 0 4 4
		l 45 0
		a 4 4 0 0 0 4 -4
		l 0 -47.329081
		a 4 4 0 0 0 -4 -4
		l -45 0
		a 4 4 0 0 0 -4 4
		l 0 47.329081
		Z" />
	<path style="fill:blue;" fill-opacity=".9" d="
		M 173 188
		m 3 0
		l 0 -47.329081
		a 10 10 0 0 1 10 -10
		l 45 0
		a 10 10 0 0 1 10 10
		l 0 47.329081
		a 10 10 0 0 1 -10 10
		l -45 0
		a 10 10 0 0 1 -10 -10
		Z" />
	<path style="fill:black;" d="
		M 173 188
		l 0 -47.329081
		a 13 13 0 0 1 13 -13
		l 45 0
		a 13 13 0 0 1 13 13
		l 0 47.329081
		a 13 13 0 0 1 -13 13
		l -45 0
		a 13 13 0 0 1 -13 -13
		l 9 0
		a 4 4 0 0 0 4 4
		l 45 0
		a 4 4 0 0 0 4 -4
		l 0 -47.329081
		a 4 4 0 0 0 -4 -4
		l -45 0
		a 4 4 0 0 0 -4 4
		l 0 47.329081
		Z" />
</svg>
