<svg width="600" height="200" viewBox="0 0 600 200" xmlns="http://www.w3.org/2000/svg" xmlns:xlink="http://www.w3.org/1999/xlink">
	<!-- text -->
	<path style="fill:black;" d="
		M 42 135
		l 31 0
		a 16 16 0 0 0 16 -16
		l 0 -9.5
		a 16 16 0 0 0 -5 -10
		a 16 16 0 0 0 5 -10
		l 0 -8.5
		a 16 16 0 0 0 -16 -16
		l -43 0
		l 0 70
		l 12 0
		l 0 -58
		l 31 0
		a 4 4 0 0 1 4 4
		l 0 8.5
		a 4 4 0 0 1 -4 4
		l -31 0
		l 0 12
		l 31 0
		a 4 4 0 0 1 4 4
		l 0 9.5
		a 4 4 0 0 1 -4 4
		l -31 0
		Z" />
	<path style="fill:black;" d="
		M 95 135
		l 10 0
		l 0 -25
		l 30 0
		l 0 -10
		l -30 0
		l 0 -9
		a 4 4 0 0 1 4 -4
		l 22 0
		a 4 4 0 0 1 4 4
		l 0 44
		l 10 0
		l 0 -44
		a 14 14 0 0 0 -14 -14
		l -22 0
		a 14 14 0 0 0 -14 14
		Z" />
	<path style="fill:black;" d="
		M 166 135
		l 22 0
		a 14 14 0 0 0 14 -14
		l 0 -7
		a 14 14 0 0 0 -14 -14
		l -22 0
		a 4 4 0 0 1 -4 -4
		l 0 -5
		a 4 4 0 0 1 4 -4
		l 22 0
		a 4 4 0 0 1 4 4
		l 0 3.7
		l 10 -1.8
		l 0 -1.9
		a 14 14 0 0 0 -14 -14
		l -22 0
		a 14 14 0 0 0 -14 14
		l 0 5
		a 14 14 0 0 0 14 14
		l 22 0
		a 4 4 0 0 1 4 4
		l 0 7
		a 4 4 0 0 1 -4 4
		l -22 0
		a 4 4 0 0 1 -4 -4
		l 0 -3.7
		l -10 1.8
		l 0 1.9
		a 14 14 0 0 0 14 14
		Z" />
	<path style="fill:black;" d="
		M 209 135
		l 47 0
		l 0 -10
		l -37 0
		l 0 -15
		l 22 0
		l 0 -10
		l -22 0
		l 0 -13
		l 37 0
		l 0 -10
		l -47 0
		Z" />
	<path style="fill:black;" d="
		M 278 135
		l 27 0
		a 16 16 0 0 0 16 -16
		l 0 -9.5
		a 16 16 0 0 0 -5 -10
		a 16 16 0 0 0 5 -10
		l 0 -8.5
		a 16 16 0 0 0 -16 -16
		l -27 0
		a 16 16 0 0 0 -16 16
		l 0 1.5
		l 12 2.5
		l 0 -4
		a 4 4 0 0 1 4 -4
		l 27 0
		a 4 4 0 0 1 4 4
		l 0 8.5
		a 4 4 0 0 1 -4 4
		l -19 0
		l 0 12
		l 19 0
		a 4 4 0 0 1 4 4
		l 0 9.5
		a 4 4 0 0 1 -4 4
		l -27 0
		a 4 4 0 0 1 -4 -4
		l 0 -4
		l -12 2.5
		l 0 1.5
		a 16 16 0 0 0 16 16
		Z" />
	<path style="fill:black;" d="
		M 341 55
		l 0 11
		l 8.5 -3
		l 2.4 7.5
		l -8.5 3
		l 4.2 10
		l -6.4 4
		l -4.2 -10
		l -4.2 10
		l -6.4 -4
		l 4.2 -10
		l -8.5 -3
		l 2.4 -7.5
		l 8.5 3
		l 0 -11
		Z" />
	<!-- logo -->
	<path style="fill:red;" fill-opacity=".6" d="
		M 382 74
		m 3 0
		l 0 -34
		a 10 10 0 0 1 10 -10
		l 73 0
		a 10 10 0 0 1 10 10
		l 0 34
		a 10 10 0 0 1 -10 10
		l -73 0
		a 10 10 0 0 1 -10 -10
		Z" />
	<path style="fill:black;" d="
		M 382 74
		l 0 -34
		a 13 13 0 0 1 13 -13
		l 73 0
		a 13 13 0 0 1 13 13
		l 0 34
		a 13 13 0 0 1 -13 13
		l -73 0
		a 13 13 0 0 1 -13 -13
		l 9 0
		a 4 4 0 0 0 4 4
		l 73 0
		a 4 4 0 0 0 4 -4
		l 0 -34
		a 4 4 0 0 0 -4 -4
		l -73 0
		a 4 4 0 0 0 -4 4
		l 0 34
		Z" />
	<path style="fill:green;" fill-opacity=".6" d="
		M 339 161
		m 3 0
		l 0 -34
		a 10 10 0 0 1 10 -10
		l 73 0
		a 10 10 0 0 1 10 10
		l 0 34
		a 10 10 0 0 1 -10 10
		l -73 0
		a 10 10 0 0 1 -10 -10
		Z" />
	<path style="fill:black;" d="
		M 339 161
		l 0 -34
		a 13 13 0 0 1 13 -13
		l 73 0
		a 13 13 0 0 1 13 13
		l 0 34
		a 13 13 0 0 1 -13 13
		l -73 0
		a 13 13 0 0 1 -13 -13
		l 9 0
		a 4 4 0 0 0 4 4
		l 73 0
		a 4 4 0 0 0 4 -4
		l 0 -34
		a 4 4 0 0 0 -4 -4
		l -73 0
		a 4 4 0 0 0 -4 4
		l 0 34
		Z" />
	<path style="fill:blue;" fill-opacity=".6" d="
		M 473 142
		m 3 0
		l 0 -34
		a 10 10 0 0 1 10 -10
		l 73 0
		a 10 10 0 0 1 10 10
		l 0 34
		a 10 10 0 0 1 -10 10
		l -73 0
		a 10 10 0 0 1 -10 -10
		Z" />
	<path style="fill:black;" d="
		M 473 142
		l 0 -34
		a 13 13 0 0 1 13 -13
		l 73 0
		a 13 13 0 0 1 13 13
		l 0 34
		a 13 13 0 0 1 -13 13
		l -73 0
		a 13 13 0 0 1 -13 -13
		l 9 0
		a 4 4 0 0 0 4 4
		l 73 0
		a 4 4 0 0 0 4 -4
		l 0 -34
		a 4 4 0 0 0 -4 -4
		l -73 0
		a 4 4 0 0 0 -4 4
		l 0 34
		Z" />
	<path style="fill:white;" fill-opacity=".6" d="
		M 367 128
		m 3 0
		l 0 -58
		a 10 10 0 0 1 10 -10
		l 139 0
		a 10 10 0 0 1 10 10
		l 0 58
		a 10 10 0 0 1 -10 10
		l -139 0
		a 10 10 0 0 1 -10 -10
		Z" />
	<path style="fill:black;" d="
		M 367 128
		l 0 -58
		a 13 13 0 0 1 13 -13
		l 139 0
		a 13 13 0 0 1 13 13
		l 0 58
		a 13 13 0 0 1 -13 13
		l -139 0
		a 13 13 0 0 1 -13 -13
		l 9 0
		a 4 4 0 0 0 4 4
		l 139 0
		a 4 4 0 0 0 4 -4
		l 0 -58
		a 4 4 0 0 0 -4 -4
		l -139 0
		a 4 4 0 0 0 -4 4
		l 0 58
		Z" />
</svg>
