<svg width="256" height="256" viewBox="0 0 256 256" xmlns="http://www.w3.org/2000/svg" xmlns:xlink="http://www.w3.org/1999/xlink">
	<!-- logo -->
	<path style="fill:#aa775a;" fill-opacity=".9" d="
		M 11 188
		m 3 0
		l 0 -106
		a 10 10 0 0 1 10 -10
		l 63 0
		l 19 -15
		l 43 0
		l 19 15
		l 63 0
		a 10 10 0 0 1 10 10
		l 0 106
		a 10 10 0 0 1 -10 10
		l -207 0
		a 10 10 0 0 1 -10 -10
		Z" />
	<path style="fill:black;" d="
		M 11 188
		l 0 -106
		a 13 13 0 0 1 13 -13
		l 59.979185 0
		a 4 4 0 0 0 2.828427 -1.171573
		l 10 -10
		a 13 13 0 0 1 9.192388 -3.807612
		l 43 0
		a 13 13 0 0 1 9.192388 3.807612
		l 10 10
		a 4 4 0 0 0 2.828427 1.171573
		l 59.979185 0
		a 13 13 0 0 1 13 13
		l 0 106
		a 13 13 0 0 1 -13 13
		l -207 0
		a 13 13 0 0 1 -13 -13
		l 9 0
		a 4 4 0 0 0 4 4
		l 207 0
		a 4 4 0 0 0 4 -4
		l 0 -106
		a 4 4 0 0 0 -4 -4
		l -59.979185 0
		a 13 13 0 0 1 -9.192388 -3.807612
		l -10 -10
		a 4 4 0 0 0 -2.828427 -1.171573
		l -43 0
		a 4 4 0 0 0 -2.828427 1.171573
		l -10 10
		a 13 13 0 0 1 -9.192388 3.807612
		l -59.979185 0
		a 4 4 0 0 0 -4 4
		l 0 106
		Z" />
	<path style="fill:blue;" fill-opacity=".6" d="
		M 82.5 135
		m 3 0
		a 42 42 0 0 1 42 -42
		a 42 42 0 0 1 42 42
		a 42 42 0 0 1 -42 42
		a 42 42 0 0 1 -42 -42
		Z" />
	<path style="fill:black;" d="
		M 82.5 135
		a 45 45 0 0 1 45 -45
		a 45 45 0 0 1 45 45
		a 45 45 0 0 1 -45 45
		a 45 45 0 0 1 -45 -45
		l 9 0
		a 36 36 0 0 0 36 36
		a 36 36 0 0 0 36 -36
		a 36 36 0 0 0 -36 -36
		a 36 36 0 0 0 -36 36
		Z" />
	<path style="fill:black;" d="
		M 185 100
		a 10 10 0 0 1 10 -10
		l 18 0
		a 10 10 0 0 1 10 10
		a 10 10 0 0 1 -10 10
		l -18 0
		a 10 10 0 0 1 -10 -10
		Z" />
</svg>
