<svg width="256" height="256" viewBox="0 0 256 256" xmlns="http://www.w3.org/2000/svg" xmlns:xlink="http://www.w3.org/1999/xlink">
	<!-- logo --> <!-- L 11 R 233 T 54 B 201 -->
	<path style="fill:white;" fill-opacity=".6" d="
		M 91 135
		m 3 0
		a 16 16 0 0 1 16 -16
		a 16 16 0 0 1 16 16
		a 16 16 0 0 1 -16 16
		a 16 16 0 0 1 -16 -16
		Z" />
	<path style="fill:black;" d="
		M 91 135
		a 19 19 0 0 1 19 -19
		a 19 19 0 0 1 19 19
		a 19 19 0 0 1 -19 19
		a 19 19 0 0 1 -19 -19
		l 9 0
		a 10 10 0 0 0 10 10
		a 10 10 0 0 0 10 -10
		a 10 10 0 0 0 -10 -10
		a 10 10 0 0 0 -10 10
		Z" />
	<path style="fill:orange;" fill-opacity=".6" d="
		M 41 182
		m 3 0
		a 16 16 0 0 1 16 -16
		a 16 16 0 0 1 16 16
		a 16 16 0 0 1 -16 16
		a 16 16 0 0 1 -16 -16
		Z" />
	<path style="fill:black;" d="
		M 41 182
		a 19 19 0 0 1 19 -19
		a 19 19 0 0 1 19 19
		a 19 19 0 0 1 -19 19
		a 19 19 0 0 1 -19 -19
		l 9 0
		a 10 10 0 0 0 10 10
		a 10 10 0 0 0 10 -10
		a 10 10 0 0 0 -10 -10
		a 10 10 0 0 0 -10 10
		Z" />

	<path style="fill:black;" d="
		M 102.152680 148.552475
		l -28.141170 26.452700
		l -6.164190 -6.557649
		l 28.141170 -26.452700
		Z" />

	<path style="fill:green;" fill-opacity=".6" d="
		M 11 100
		m 3 0
		a 16 16 0 0 1 16 -16
		a 16 16 0 0 1 16 16
		a 16 16 0 0 1 -16 16
		a 16 16 0 0 1 -16 -16
		Z" />
	<path style="fill:black;" d="
		M 11 100
		a 19 19 0 0 1 19 -19
		a 19 19 0 0 1 19 19
		a 19 19 0 0 1 -19 19
		a 19 19 0 0 1 -19 -19
		l 9 0
		a 10 10 0 0 0 10 10
		a 10 10 0 0 0 10 -10
		a 10 10 0 0 0 -10 -10
		a 10 10 0 0 0 -10 10
		Z" />

	<path style="fill:black;" d="
		M 94.453955 133.110425
		l -52.515280 -22.975435
		l 3.607370 -8.245416
		l 52.515280 22.975435
		Z" />

	<path style="fill:red;" fill-opacity=".6" d="
		M 121 73
		m 3 0
		a 16 16 0 0 1 16 -16
		a 16 16 0 0 1 16 16
		a 16 16 0 0 1 -16 16
		a 16 16 0 0 1 -16 -16
		Z" />
	<path style="fill:black;" d="
		M 121 73
		a 19 19 0 0 1 19 -19
		a 19 19 0 0 1 19 19
		a 19 19 0 0 1 -19 19
		a 19 19 0 0 1 -19 -19
		l 9 0
		a 10 10 0 0 0 10 10
		a 10 10 0 0 0 10 -10
		a 10 10 0 0 0 -10 -10
		a 10 10 0 0 0 -10 10
		Z" />

	<path style="fill:black;" d="
		M 112.482697 119.537587
		l 16.933172 -34.995222
		l 8.101433 3.920048
		l -16.933172 34.995222
		Z" />

	<path style="fill:yellow;" fill-opacity=".6" d="
		M 195 110
		m 3 0
		a 16 16 0 0 1 16 -16
		a 16 16 0 0 1 16 16
		a 16 16 0 0 1 -16 16
		a 16 16 0 0 1 -16 -16
		Z" />
	<path style="fill:black;" d="
		M 195 110
		a 19 19 0 0 1 19 -19
		a 19 19 0 0 1 19 19
		a 19 19 0 0 1 -19 19
		a 19 19 0 0 1 -19 -19
		l 9 0
		a 10 10 0 0 0 10 10
		a 10 10 0 0 0 10 -10
		a 10 10 0 0 0 -10 -10
		a 10 10 0 0 0 -10 10
		Z" />

	<path style="fill:black;" d="
		M 123.532767 127.118741
		l 74.830928 -17.988204
		l 2.103538 8.750721
		l -74.830928 17.988204
		Z" />

	<path style="fill:blue;" fill-opacity=".6" d="
		M 165 172
		m 3 0
		a 16 16 0 0 1 16 -16
		a 16 16 0 0 1 16 16
		a 16 16 0 0 1 -16 16
		a 16 16 0 0 1 -16 -16
		Z" />
	<path style="fill:black;" d="
		M 165 172
		a 19 19 0 0 1 19 -19
		a 19 19 0 0 1 19 19
		a 19 19 0 0 1 -19 19
		a 19 19 0 0 1 -19 -19
		l 9 0
		a 10 10 0 0 0 10 10
		a 10 10 0 0 0 10 -10
		a 10 10 0 0 0 -10 -10
		a 10 10 0 0 0 -10 10
		Z" />

	<path style="fill:black;" d="
		M 125.428869 137.683282
		l 47.167184 23.583592
		l -4.024922 8.049845
		l -47.167184 -23.583592
		Z" />
</svg>
