<svg width="256" height="256" viewBox="0 0 256 256" xmlns="http://www.w3.org/2000/svg" xmlns:xlink="http://www.w3.org/1999/xlink">
	<!-- logo -->
	<path style="fill:#ffffcc;" fill-opacity=".9" d="
		M 11 188
		m 3 0
		l 0 -121
		a 10 10 0 0 1 10 -10
		l 207 0
		a 10 10 0 0 1 10 10
		l 0 121
		a 10 10 0 0 1 -10 10
		l -207 0
		a 10 10 0 0 1 -10 -10
		Z" />
	<path style="fill:black;" d="
		M 11 188
		l 0 -121
		a 13 13 0 0 1 13 -13
		l 207 0
		a 13 13 0 0 1 13 13
		l 0 121
		a 13 13 0 0 1 -13 13
		l -207 0
		a 13 13 0 0 1 -13 -13
		l 9 0
		a 4 4 0 0 0 4 4
		l 207 0
		a 4 4 0 0 0 4 -4
		l 0 -121
		a 4 4 0 0 0 -4 -4
		l -207 0
		a 4 4 0 0 0 -4 4
		l 0 121
		Z" />
	<path style="fill:black;" d="
		M 41 160
		l 30 -45
		a 13 13 0 0 1 10.816654 -5.788897
		a 13 13 0 0 1 10.816654 5.788897
		l 10 15
		a 4 4 0 0 0 3.328201 2.769231
		a 4 4 0 0 0 3.123475 -1.501220
		l 20 -25
		a 13 13 0 0 1 10.151295 -4.878964
		a 13 13 0 0 1 7.211103 2.183346
		l 30 20
		a 4 4 0 0 0 2.218801 0.671799
		a 4 4 0 0 0 3.391993 -1.880004
		l 25 -40
		a 4.5 4.5 0 0 1 7.631985 4.769990
		l -25 40
		a 13 13 0 0 1 -11.023978 6.110014
		a 13 13 0 0 1 -7.211103 -2.183346
		l -30 -20
		a 4 4 0 0 0 -2.218801 -0.671799
		a 4 4 0 0 0 -3.123475 1.501220
		l -20 25
		a 13 13 0 0 1 -10.151295 4.878964
		a 13 13 0 0 1 -10.816654 -5.788897
		l -10 -15
		a 4 4 0 0 0 -3.328201 -2.769231
		a 4 4 0 0 0 -3.328201 2.769231
		l -30 45
		a 4.5 4.5 0 0 1 -7.488453 -4.992302
		Z" />

</svg>
