<svg width="256" height="256" viewBox="0 0 256 256" xmlns="http://www.w3.org/2000/svg" xmlns:xlink="http://www.w3.org/1999/xlink">
	<!-- logo -->
	<path style="fill:#ffffcc;" fill-opacity=".9" d="
		M 11 188
		m 3 0
		l 0 -121
		a 10 10 0 0 1 10 -10
		l 207 0
		a 10 10 0 0 1 10 10
		l 0 121
		a 10 10 0 0 1 -10 10
		l -207 0
		a 10 10 0 0 1 -10 -10
		Z" />
	<path style="fill:white;" fill-opacity=".9" d="
		M 20 63
		l 107.5 64.5
		l 107.5 -64.5
		Z" />
	<path style="fill:black;" d="
		M 11 188
		l 0 -121
		a 13 13 0 0 1 13 -13
		l 207 0
		a 13 13 0 0 1 13 13
		l 0 121
		a 13 13 0 0 1 -13 13
		l -207 0
		a 13 13 0 0 1 -13 -13
		l 9 0
		a 4 4 0 0 0 4 4
		l 207 0
		a 4 4 0 0 0 4 -4
		l 0 -121
		a 4 4 0 0 0 -4 -4
		l -207 0
		a 4 4 0 0 0 -4 4
		l 0 121
		Z" />
	<path style="fill:black;" d="
		M 20 63
		l 2.315231 -3.858718
		l 103.126786 61.8760716
		a 4 4 0 0 0 4.115966 0
		l 103.126786 -61.8760716
		l 4.630462 7.717436
		l -103.126786 61.8760716
		a 13 13 0 0 1 -13.376890 0
		l -103.126786 -61.8760716
		Z" />
</svg>
