<svg width="256" height="256" viewBox="0 0 256 256" xmlns="http://www.w3.org/2000/svg" xmlns:xlink="http://www.w3.org/1999/xlink">
	<!-- logo -->
	<path style="fill:green;" fill-opacity=".9" d="
		M 11 188
		m 3 0
		l 0 -50
		a 10 10 0 0 1 10 -10
		l 207 0
		a 10 10 0 0 1 10 10
		l 0 50
		a 10 10 0 0 1 -10 10
		l -207 0
		a 10 10 0 0 1 -10 -10
		Z" />
	<path style="fill:black;" d="
		M 11 188
		l 0 -50
		a 13 13 0 0 1 13 -13
		l 207 0
		a 13 13 0 0 1 13 13
		l 0 50
		a 13 13 0 0 1 -13 13
		l -207 0
		a 13 13 0 0 1 -13 -13
		l 9 0
		a 4 4 0 0 0 4 4
		l 207 0
		a 4 4 0 0 0 4 -4
		l 0 -50
		a 4 4 0 0 0 -4 -4
		l -207 0
		a 4 4 0 0 0 -4 4
		l 0 50
		Z" />
	<path style="fill:red;" fill-opacity=".9" d="
		M 126 90
		m 3 0
		a 33 33 0 0 1 33 -33
		a 33 33 0 0 1 33 33
		a 33 33 0 0 1 -2.520868 12.65
		l -21.243032 51.183333
		a 10 10 0 0 1 -18.4722 0
		l -21.243032 -51.183333
		a 33 33 0 0 1 -2.520868 -12.65
		Z" />
	<path style="fill:black;" d="
		M 126 90
		a 36 36 0 0 1 36 -36
		a 36 36 0 0 1 36 36
		a 36 36 0 0 1 -2.750038 13.8
		l -21.243032 51.183333
		a 13 13 0 0 1 -24.01386 0
		l -21.243032 -51.183333
		a 36 36 0 0 1 -2.750038 -13.8
		l 9 0
		a 27 27 0 0 0 2.062528 10.35
		l 21.243032 51.183333
		a 4 4 0 0 0 7.338888 0
		l 21.243032 -51.183333
		a 27 27 0 0 0 2.062528 -10.35
		a 27 27 0 0 0 -27 -27
		a 27 27 0 0 0 -27 27
		Z" />
	<path style="fill:white;" fill-opacity=".9" d="
		M 143 90
		m 3 0
		a 16 16 0 0 1 16 -16
		a 16 16 0 0 1 16 16
		a 16 16 0 0 1 -16 16
		a 16 16 0 0 1 -16 -16
		Z" />
	<path style="fill:black;" d="
		M 143 90
		a 19 19 0 0 1 19 -19
		a 19 19 0 0 1 19 19
		a 19 19 0 0 1 -19 19
		a 19 19 0 0 1 -19 -19
		l 9 0
		a 10 10 0 0 0 10 10
		a 10 10 0 0 0 10 -10
		a 10 10 0 0 0 -10 -10
		a 10 10 0 0 0 -10 10
		Z" />
</svg>
